# Blender v2.79 (sub 0) OBJ File: ''
# www.blender.org
mtllib nice.mtl
o Cube.010_Cube.011
v -1.000000 -1.000000 -51.000000
v 1.000000 1.000000 -51.000000
v 0.999999 1.000000 -49.000000
v 1.000000 -1.000000 -51.000000
v 1.000000 -1.000000 -49.000000
v -1.000000 -1.000000 -49.000000
v -1.000000 1.000000 -49.000000
v -1.000000 1.000000 -51.000000
v 0.559751 1.375702 -50.559750
v -0.559751 1.375702 -50.559750
v -0.559751 1.375702 -49.440250
v 0.559750 1.375702 -49.440250
v 0.279024 1.673912 -49.720974
v 0.279025 1.673912 -50.279026
v -0.559751 0.900241 -50.559750
v -0.559751 0.900241 -49.440250
v -0.279025 1.673912 -50.279026
v -0.279025 1.673912 -49.720974
v 0.559751 0.900241 -50.559750
v 0.559750 0.900241 -49.440250
vn 0.0000 1.0000 0.0000
vn -1.0000 0.0000 0.0000
vn 0.0000 0.0000 -1.0000
vn 1.0000 0.0000 0.0000
vn 0.0000 0.0000 1.0000
vn -0.6491 0.7607 -0.0000
vn 0.0000 0.7607 -0.6491
vn 0.0000 0.7607 0.6491
vn 0.6491 0.7607 0.0000
vn 0.9400 0.3411 0.0000
vn 0.0000 0.3411 -0.9400
vn -0.9400 0.3411 -0.0000
vn 0.0000 0.3411 0.9400
usemtl Material
s off
f 1//1 5//1 4//1
f 5//2 2//2 4//2
f 6//3 3//3 5//3
f 6//4 8//4 7//4
f 8//5 4//5 2//5
f 7//6 10//6 8//6
f 8//7 9//7 2//7
f 7//8 12//8 11//8
f 3//9 9//9 12//9
f 11//4 15//4 10//4
f 20//10 14//10 13//10
f 10//5 19//5 9//5
f 12//3 16//3 11//3
f 15//11 14//11 19//11
f 9//2 20//2 12//2
f 16//12 17//12 15//12
f 20//13 18//13 16//13
f 17//1 13//1 14//1
f 1//1 6//1 5//1
f 5//2 3//2 2//2
f 6//3 7//3 3//3
f 6//4 1//4 8//4
f 8//5 1//5 4//5
f 7//6 11//6 10//6
f 8//7 10//7 9//7
f 7//8 3//8 12//8
f 3//9 2//9 9//9
f 11//4 16//4 15//4
f 20//10 19//10 14//10
f 10//5 15//5 19//5
f 12//3 20//3 16//3
f 15//11 17//11 14//11
f 9//2 19//2 20//2
f 16//12 18//12 17//12
f 20//13 13//13 18//13
f 17//1 18//1 13//1
o Cube.009_Cube.010
v -1.000000 -1.000000 -46.000000
v 1.000000 1.000000 -46.000000
v 0.999999 1.000000 -44.000000
v 1.000000 -1.000000 -46.000000
v 1.000000 -1.000000 -44.000000
v -1.000000 -1.000000 -44.000000
v -1.000000 1.000000 -44.000000
v -1.000000 1.000000 -46.000000
v 0.559751 1.375702 -45.559750
v -0.559751 1.375702 -45.559750
v -0.559751 1.375702 -44.440250
v 0.559750 1.375702 -44.440250
v 0.279024 1.673912 -44.720974
v 0.279025 1.673912 -45.279026
v -0.559751 0.900241 -45.559750
v -0.559751 0.900241 -44.440250
v -0.279025 1.673912 -45.279026
v -0.279025 1.673912 -44.720974
v 0.559751 0.900241 -45.559750
v 0.559750 0.900241 -44.440250
vn 0.0000 1.0000 0.0000
vn -1.0000 0.0000 0.0000
vn 0.0000 0.0000 -1.0000
vn 1.0000 0.0000 0.0000
vn 0.0000 0.0000 1.0000
vn -0.6491 0.7607 -0.0000
vn 0.0000 0.7607 -0.6491
vn 0.0000 0.7607 0.6491
vn 0.6491 0.7607 0.0000
vn 0.9400 0.3411 0.0000
vn 0.0000 0.3411 -0.9400
vn -0.9400 0.3411 -0.0000
vn 0.0000 0.3411 0.9400
usemtl Material
s off
f 21//14 25//14 24//14
f 25//15 22//15 24//15
f 26//16 23//16 25//16
f 26//17 28//17 27//17
f 28//18 24//18 22//18
f 27//19 30//19 28//19
f 28//20 29//20 22//20
f 27//21 32//21 31//21
f 23//22 29//22 32//22
f 31//17 35//17 30//17
f 40//23 34//23 33//23
f 30//18 39//18 29//18
f 32//16 36//16 31//16
f 35//24 34//24 39//24
f 29//15 40//15 32//15
f 36//25 37//25 35//25
f 40//26 38//26 36//26
f 37//14 33//14 34//14
f 21//14 26//14 25//14
f 25//15 23//15 22//15
f 26//16 27//16 23//16
f 26//17 21//17 28//17
f 28//18 21//18 24//18
f 27//19 31//19 30//19
f 28//20 30//20 29//20
f 27//21 23//21 32//21
f 23//22 22//22 29//22
f 31//17 36//17 35//17
f 40//23 39//23 34//23
f 30//18 35//18 39//18
f 32//16 40//16 36//16
f 35//24 37//24 34//24
f 29//15 39//15 40//15
f 36//25 38//25 37//25
f 40//26 33//26 38//26
f 37//14 38//14 33//14
o Cube.008_Cube.009
v -1.000000 -1.000000 -41.000000
v 1.000000 1.000000 -41.000000
v 0.999999 1.000000 -39.000000
v 1.000000 -1.000000 -41.000000
v 1.000000 -1.000000 -39.000000
v -1.000000 -1.000000 -39.000000
v -1.000000 1.000000 -39.000000
v -1.000000 1.000000 -41.000000
v 0.559751 1.375702 -40.559750
v -0.559751 1.375702 -40.559750
v -0.559751 1.375702 -39.440250
v 0.559750 1.375702 -39.440250
v 0.279024 1.673912 -39.720974
v 0.279025 1.673912 -40.279026
v -0.559751 0.900241 -40.559750
v -0.559751 0.900241 -39.440250
v -0.279025 1.673912 -40.279026
v -0.279025 1.673912 -39.720974
v 0.559751 0.900241 -40.559750
v 0.559750 0.900241 -39.440250
vn 0.0000 1.0000 0.0000
vn -1.0000 0.0000 0.0000
vn 0.0000 0.0000 -1.0000
vn 1.0000 0.0000 0.0000
vn 0.0000 0.0000 1.0000
vn -0.6491 0.7607 -0.0000
vn 0.0000 0.7607 -0.6491
vn 0.0000 0.7607 0.6491
vn 0.6491 0.7607 0.0000
vn 0.9400 0.3411 0.0000
vn 0.0000 0.3411 -0.9400
vn -0.9400 0.3411 -0.0000
vn 0.0000 0.3411 0.9400
usemtl Material
s off
f 41//27 45//27 44//27
f 45//28 42//28 44//28
f 46//29 43//29 45//29
f 46//30 48//30 47//30
f 48//31 44//31 42//31
f 47//32 50//32 48//32
f 48//33 49//33 42//33
f 47//34 52//34 51//34
f 43//35 49//35 52//35
f 51//30 55//30 50//30
f 60//36 54//36 53//36
f 50//31 59//31 49//31
f 52//29 56//29 51//29
f 55//37 54//37 59//37
f 49//28 60//28 52//28
f 56//38 57//38 55//38
f 60//39 58//39 56//39
f 57//27 53//27 54//27
f 41//27 46//27 45//27
f 45//28 43//28 42//28
f 46//29 47//29 43//29
f 46//30 41//30 48//30
f 48//31 41//31 44//31
f 47//32 51//32 50//32
f 48//33 50//33 49//33
f 47//34 43//34 52//34
f 43//35 42//35 49//35
f 51//30 56//30 55//30
f 60//36 59//36 54//36
f 50//31 55//31 59//31
f 52//29 60//29 56//29
f 55//37 57//37 54//37
f 49//28 59//28 60//28
f 56//38 58//38 57//38
f 60//39 53//39 58//39
f 57//27 58//27 53//27
o Cube
v -1.000000 -1.000000 -1.000000
v 1.000000 1.000000 -0.999999
v 0.999999 1.000000 1.000001
v 1.000000 -1.000000 -1.000000
v 1.000000 -1.000000 1.000000
v -1.000000 -1.000000 1.000000
v -1.000000 1.000000 1.000000
v -1.000000 1.000000 -1.000000
v 0.559751 1.375702 -0.559750
v -0.559751 1.375702 -0.559751
v -0.559751 1.375702 0.559751
v 0.559750 1.375702 0.559751
v 0.279024 1.673912 0.279025
v 0.279025 1.673912 -0.279024
v -0.559751 0.900241 -0.559751
v -0.559751 0.900241 0.559751
v -0.279025 1.673912 -0.279024
v -0.279025 1.673912 0.279025
v 0.559751 0.900241 -0.559750
v 0.559750 0.900241 0.559751
vt 0.000000 0.000000
vt 0.334820 0.390663
vt 0.000000 0.390663
vt 0.667410 0.390663
vt 1.000000 0.000000
vt 1.000000 0.390663
vt 0.667410 0.000000
vt 0.334820 0.000000
vt 0.667410 0.781326
vt 0.334820 0.781326
vt 0.000000 0.781326
vt 0.261118 0.695332
vt 0.334820 0.781326
vt 0.261118 0.476658
vt 0.334820 0.390663
vt 0.073702 0.476658
vt 0.073702 0.695332
vt 0.000000 0.390663
vt 0.615361 0.781326
vt 0.694428 1.000000
vt 0.615361 1.000000
vt 0.402221 0.781326
vt 0.268147 0.945165
vt 0.268147 0.836161
vt 0.773495 0.781326
vt 0.852561 1.000000
vt 0.773495 1.000000
vt 0.773495 1.000000
vt 0.694428 0.781326
vt 0.773495 0.781326
vt 0.536294 1.000000
vt 0.402221 0.836161
vt 0.536294 0.781326
vt 0.536294 0.781326
vt 0.615361 1.000000
vt 0.536294 1.000000
vt 0.134074 1.000000
vt 0.000000 0.836161
vt 0.134073 0.781326
vt 0.268147 0.781326
vt 0.134074 0.945165
vt 0.134074 0.836161
vt 0.945984 0.890331
vt 0.852561 0.781326
vt 0.945984 0.781326
vt 0.667410 0.390663
vt 1.000000 0.781326
vt 0.402221 1.000000
vt 0.852561 0.781326
vt 0.694428 1.000000
vt 0.402221 0.945165
vt 0.615361 0.781326
vt 0.000000 0.945165
vt 0.268147 1.000000
vt 0.852561 0.890331
vn 0.0000 -1.0000 0.0000
vn 1.0000 -0.0000 0.0000
vn 0.0000 -0.0000 1.0000
vn -1.0000 -0.0000 -0.0000
vn 0.0000 0.0000 -1.0000
vn -0.6491 0.7607 -0.0000
vn 0.0000 0.7607 -0.6491
vn -0.0000 0.7607 0.6491
vn 0.6491 0.7607 0.0000
vn 0.9400 0.3411 0.0000
vn 0.0000 0.3411 -0.9400
vn -0.9400 0.3411 -0.0000
vn -0.0000 0.3411 0.9400
vn 0.0000 1.0000 -0.0000
usemtl Material_Untitled
s off
f 64/1/40 66/2/40 61/3/40
f 62/4/41 65/5/41 64/6/41
f 63/7/42 66/2/42 65/8/42
f 66/2/43 68/9/43 61/10/43
f 64/6/44 68/9/44 62/4/44
f 67/11/45 70/12/45 68/13/45
f 68/13/46 69/14/46 62/15/46
f 67/11/47 72/16/47 71/17/47
f 63/18/48 69/14/48 72/16/48
f 71/19/41 75/20/41 70/21/41
f 80/22/49 74/23/49 73/24/49
f 70/25/42 79/26/42 69/27/42
f 72/28/44 76/29/44 71/30/44
f 75/31/50 74/32/50 79/33/50
f 69/34/43 80/35/43 72/36/43
f 76/37/51 77/38/51 75/39/51
f 76/40/52 73/41/52 78/42/52
f 77/43/53 73/44/53 74/45/53
f 64/1/40 65/8/40 66/2/40
f 62/4/41 63/7/41 65/5/41
f 63/7/42 67/46/42 66/2/42
f 66/2/43 67/46/43 68/9/43
f 64/6/44 61/47/44 68/9/44
f 67/11/45 71/17/45 70/12/45
f 68/13/46 70/12/46 69/14/46
f 67/11/47 63/18/47 72/16/47
f 63/18/48 62/15/48 69/14/48
f 71/19/41 76/29/41 75/20/41
f 80/22/49 79/48/49 74/23/49
f 70/25/42 75/49/42 79/26/42
f 72/28/44 80/50/44 76/29/44
f 75/31/50 77/51/50 74/32/50
f 69/34/43 79/52/43 80/35/43
f 76/37/51 78/53/51 77/38/51
f 76/40/52 80/54/52 73/41/52
f 77/43/53 78/55/53 73/44/53
